#!Matlab matrix to amc conversion
:FULLY-SPECIFIED
:DEGREES
1
root 0.000000 0.000000 0.000000 5.156194 4.608043 4.618835
lowerback -7.821772 -4.232345 -7.716704
upperback -1.274719 -5.033121 1.333860
thorax 3.817532 -2.614559 5.136054
lowerneck -22.613534 -1.120841 -10.845678
upperneck 30.307635 -0.693000 9.564333
head 14.215913 -0.202791 5.680928
rclavicle 0.000000 -0.000000
rhumerus -51.199349 2.408892 -81.020141
rradius 17.111757
rwrist 3.563191
rhand -28.856200 -18.800500
rfingers 7.125020
rthumb -2.212790 -48.768800
lclavicle 0.000000 -0.000000
lhumerus -5.092489 -20.507586 84.146695
lradius 45.513878
lwrist 15.808178
lhand -19.668800 -28.799300
lfingers 7.125020
lthumb 6.659510 1.076010
rfemur -38.034090 -0.547506 19.140219
rtibia 30.180353
rfoot -8.894560 1.578004
rtoes -20.766800
lfemur 24.734844 8.921100 -23.572027
ltibia 0.331178
lfoot -4.614210 -8.751684
ltoes -22.051700
2
root -0.031467 -0.002671 0.502442 4.830762 4.403069 4.448975
lowerback -7.603600 -4.278686 -7.630649
upperback -1.348869 -5.130415 1.530810
thorax 3.629345 -2.654975 5.304298
lowerneck -22.662466 -0.917533 -10.891936
upperneck 30.348778 -0.338202 9.462599
head 14.197313 -0.067855 5.711770
rclavicle 0.000000 -0.000000
rhumerus -50.772943 -0.540831 -77.626704
rradius 15.376542
rwrist 8.488652
rhand -28.856200 -18.800500
rfingers 7.125020
rthumb -2.212790 -48.768800
lclavicle 0.000000 -0.000000
lhumerus -7.103544 -20.315746 84.899297
lradius 47.243978
lwrist 17.370554
lhand -19.668800 -28.799300
lfingers 7.125020
lthumb 6.659510 1.076010
rfemur -36.810054 -2.689438 21.086402
rtibia 32.207998
rfoot -4.445770 4.081059
rtoes -20.766800
lfemur 26.686028 9.635791 -22.607141
ltibia 0.212330
lfoot 0.224760 -7.526878
ltoes -22.051700
3
root -0.068543 0.021961 1.009334 4.571605 4.198453 4.138980
lowerback -7.295752 -4.290716 -7.400829
upperback -1.441380 -5.204082 1.784282
thorax 3.360081 -2.678880 5.464870
lowerneck -22.673399 -0.730393 -10.961264
upperneck 30.241026 -0.021732 9.444660
head 14.115652 0.061195 5.764920
rclavicle 0.000000 -0.000000
rhumerus -50.165787 -4.351618 -73.348561
rradius 13.748182
rwrist 14.212560
rhand -28.856200 -18.800500
rfingers 7.125020
rthumb -2.212790 -48.768800
lclavicle 0.000000 -0.000000
lhumerus -9.893841 -20.413822 86.045397
lradius 48.916892
lwrist 19.104232
lhand -19.668800 -28.799300
lfingers 7.125020
lthumb 6.659510 1.076010
rfemur -35.486687 -4.611239 22.994509
rtibia 34.497608
rfoot -0.282049 6.457814
rtoes -20.766800
lfemur 28.128121 10.227179 -21.506319
ltibia 0.687247
lfoot 6.892539 -4.747037
ltoes -22.051700
4
root -0.112016 0.077454 1.514025 4.439880 4.038557 3.659513
lowerback -6.899785 -4.269160 -6.998891
upperback -1.557939 -5.254136 2.107631
thorax 3.006097 -2.686489 5.614337
lowerneck -22.630482 -0.590179 -11.078175
upperneck 29.984771 0.202932 9.558095
head 13.974700 0.164667 5.854773
rclavicle 0.000000 -0.000000
rhumerus -49.488009 -8.934752 -68.306434
rradius 12.447888
rwrist 20.351317
rhand -28.856200 -18.800500
rfingers 7.125020
rthumb -2.212790 -48.768800
lclavicle 0.000000 -0.000000
lhumerus -13.372281 -20.735041 87.570214
lradius 50.347601
lwrist 20.829838
lhand -19.668800 -28.799300
lfingers 7.125020
lthumb 6.659510 1.076010
rfemur -34.251891 -6.113625 24.638765
rtibia 36.955351
rfoot 2.757289 8.622862
rtoes -20.766800
lfemur 28.399722 10.625698 -20.234736
ltibia 2.789347
lfoot 15.112876 0.061597
ltoes -22.051700
5
root -0.162631 0.164380 2.006648 4.483212 3.966859 2.962011
lowerback -6.442931 -4.199374 -6.373996
upperback -1.682096 -5.256095 2.493848
thorax 2.595873 -2.667516 5.713299
lowerneck -22.538265 -0.555297 -11.240170
upperneck 29.615955 0.237773 9.829871
head 13.802012 0.203494 5.977207
rclavicle 0.000000 -0.000000
rhumerus -48.840741 -13.858196 -63.092555
rradius 11.679891
rwrist 25.976533
rhand -28.856200 -18.800500
rfingers 7.125020
rthumb -2.212790 -48.768800
lclavicle 0.000000 -0.000000
lhumerus -17.120135 -21.129017 89.317795
lradius 51.189577
lwrist 22.130801
lhand -19.668800 -28.799300
lfingers 7.125020
lthumb 6.659510 1.076010
rfemur -33.255752 -6.926397 25.808624
rtibia 39.225901
rfoot 3.677150 10.333944
rtoes -20.766800
lfemur 26.679540 10.766577 -18.756697
ltibia 7.734204
lfoot 23.688228 6.871635
ltoes -22.051700
6
root -0.219829 0.277434 2.475727 4.666927 4.007859 2.025302
lowerback -6.018210 -4.048273 -5.514960
upperback -1.767776 -5.154444 2.896476
thorax 2.218195 -2.598133 5.701563
lowerneck -22.389294 -0.677423 -11.405236
upperneck 29.251056 -0.001145 10.210838
head 13.654630 0.136408 6.096728
rclavicle 0.000000 -0.000000
rhumerus -48.248353 -18.501243 -58.581978
rradius 11.401039
rwrist 30.242444
rhand -28.856200 -18.800500
rfingers 7.125020
rthumb -2.212790 -48.768800
lclavicle 0.000000 -0.000000
lhumerus -20.570097 -21.589017 91.100748
lradius 51.123584
lwrist 22.680585
lhand -19.668800 -28.799300
lfingers 7.125020
lthumb 6.659510 1.076010
rfemur -32.251351 -7.066377 26.597170
rtibia 40.743519
rfoot 2.152050 11.514908
rtoes -20.766800
lfemur 22.522098 10.735506 -17.056929
ltibia 16.159762
lfoot 31.202727 15.139053
ltoes -22.051700
7
root -0.280752 0.406676 2.912107 4.895776 4.204917 0.989075
lowerback -5.657194 -3.851023 -4.614426
upperback -1.853425 -4.977063 3.313884
thorax 1.868385 -2.494243 5.677658
lowerneck -22.171862 -0.954762 -11.636124
upperneck 28.919751 -0.466611 10.645796
head 13.542184 -0.032569 6.211595
rclavicle 0.000000 -0.000000
rhumerus -47.660978 -21.727632 -55.714295
rradius 11.816427
rwrist 32.174299
rhand -28.856200 -18.800500
rfingers 7.125020
rthumb -2.212790 -48.768800
lclavicle 0.000000 -0.000000
lhumerus -23.501336 -22.240373 92.941616
lradius 50.192798
lwrist 22.616286
lhand -19.668800 -28.799300
lfingers 7.125020
lthumb 6.659510 1.076010
rfemur -30.821668 -6.969286 27.165531
rtibia 41.004299
rfoot -0.817190 12.478986
rtoes -20.766800
lfemur 16.368122 10.513827 -15.271291
ltibia 27.084196
lfoot 36.875005 24.350912
ltoes -22.051700
8
root -0.341830 0.542267 3.311977 5.060633 4.533696 0.021722
lowerback -5.296532 -3.671617 -3.844671
upperback -1.986631 -4.798612 3.752299
thorax 1.487061 -2.393266 5.740337
lowerneck -22.013391 -1.365410 -11.986121
upperneck 28.424543 -1.067206 11.116663
head 13.403346 -0.266208 6.330435
rclavicle 0.000000 -0.000000
rhumerus -46.836075 -22.370468 -55.285080
rradius 13.085694
rwrist 30.642288
rhand -28.856200 -18.800500
rfingers 7.125020
rthumb -2.212790 -48.768800
lclavicle 0.000000 -0.000000
lhumerus -25.674856 -22.911811 94.756588
lradius 48.604688
lwrist 22.054679
lhand -19.668800 -28.799300
lfingers 7.125020
lthumb 6.659510 1.076010
rfemur -29.040765 -6.653109 27.446336
rtibia 39.872325
rfoot -3.835936 12.973444
rtoes -20.766800
lfemur 9.606893 9.925160 -13.726398
ltibia 37.853852
lfoot 39.590859 32.789752
ltoes -22.051700
9
root -0.399527 0.673793 3.679934 5.167024 4.746198 -0.662823
lowerback -5.136326 -3.410568 -3.335652
upperback -2.030478 -4.482015 4.003734
thorax 1.297849 -2.230319 5.751843
lowerneck -21.909504 -1.836842 -12.231195
upperneck 27.942704 -1.750407 11.467390
head 13.295612 -0.540828 6.368378
rclavicle 0.000000 -0.000000
rhumerus -45.692730 -21.551864 -56.517902
rradius 14.211126
rwrist 27.652331
rhand -28.856200 -18.800500
rfingers 7.125020
rthumb -2.212790 -48.768800
lclavicle 0.000000 -0.000000
lhumerus -26.875125 -23.781772 96.322047
lradius 46.550814
lwrist 21.402881
lhand -19.668800 -28.799300
lfingers 7.125020
lthumb 6.659510 1.076010
rfemur -26.886775 -6.190280 27.592048
rtibia 37.693142
rfoot -6.032200 12.932336
rtoes -20.766800
lfemur 3.887596 9.438441 -12.885485
ltibia 45.663507
lfoot 40.186744 39.382138
ltoes -22.051700
